<svg width="500" height="500" viewBox="0 0 500 500" fill="none" xmlns="http://www.w3.org/2000/svg">
<path fill-rule="evenodd" clip-rule="evenodd" d="M437.479 265.705C448.093 268.68 454.253 263.951 459.821 259.677C464.506 256.079 468.772 252.804 474.921 254.718C493.129 260.365 500 245.259 500 245.259C500 245.259 481.556 249.555 475.618 241.175C472.991 237.462 467.611 237.974 461.278 238.577C453.306 239.336 443.823 240.239 436.421 233.038C429.694 226.483 419.828 226.13 411.727 227.371C411.684 227.062 411.644 226.753 411.603 226.445C411.519 225.806 411.435 225.168 411.331 224.529C417.015 220.46 425.107 216.52 435.15 216.641C446.179 216.771 450.905 210.61 455.176 205.042C458.77 200.357 462.042 196.092 468.476 196.345C487.533 197.098 490.258 180.716 490.258 180.716C490.258 180.716 473.554 189.64 465.641 183.081C462.146 180.174 457.081 182.062 451.118 184.284C443.613 187.081 434.684 190.409 425.672 185.373C417.491 180.786 407.889 182.978 400.399 186.269C400.145 185.675 399.874 185.09 399.602 184.505C399.471 184.224 399.341 183.943 399.213 183.661C403.656 178.249 410.452 172.348 420.193 169.865C430.88 167.131 433.85 159.958 436.535 153.475C438.794 148.02 440.85 143.055 447.13 141.634C465.732 137.421 464.123 120.9 464.123 120.9C464.123 120.9 450.299 133.841 440.972 129.548C436.845 127.65 432.443 130.782 427.26 134.469C420.732 139.113 412.965 144.638 402.95 142.1C393.833 139.79 385.094 144.439 378.697 149.565C378.124 148.816 377.533 148.06 376.938 147.322C379.828 140.94 384.881 133.471 393.664 128.539C403.275 123.135 404.287 115.437 405.202 108.48C405.971 102.626 406.672 97.2966 412.368 94.2996C429.255 85.413 423.424 69.8793 423.424 69.8793C423.424 69.8793 413.429 85.9565 403.295 84.2267C398.819 83.4631 395.379 87.6267 391.329 92.5282C386.226 98.7047 380.155 106.053 369.822 106.19C360.422 106.315 353.193 113.053 348.345 119.667C347.83 119.276 347.306 118.9 346.782 118.523L346.765 118.511C346.526 118.339 346.286 118.166 346.047 117.992C347.185 111.081 350.13 102.547 357.346 95.5037C365.237 87.7949 364.219 80.0973 363.3 73.1394C362.526 67.2865 361.822 61.957 366.547 57.5848C380.566 44.6296 370.906 31.1301 370.906 31.1301C370.906 31.1301 365.405 49.2482 355.172 50.1958C350.648 50.6166 348.403 55.5301 345.759 61.314C342.429 68.6001 338.467 77.2677 328.525 80.0761C319.47 82.6282 314.227 91.0261 311.26 98.6642C310.386 98.3117 309.508 97.9628 308.616 97.6213C307.926 90.6551 308.557 81.655 313.705 72.9772C319.328 63.4955 316.355 56.3235 313.668 49.8406C311.407 44.3848 309.347 39.4171 312.784 33.9715C322.958 17.8323 310.14 7.29311 310.14 7.29311C310.14 7.29311 309.509 26.2122 299.881 29.7816C295.619 31.3613 294.72 36.6888 293.662 42.9596V42.9598C292.329 50.8585 290.744 60.2537 281.867 65.5412C277.556 68.1117 274.725 72.0116 272.874 76.3333C272.217 71.6806 270.495 67.1749 266.988 63.5689C259.779 56.1713 260.682 46.6866 261.44 38.7111C262.042 32.3789 262.554 26.9981 258.844 24.3687C250.457 18.4344 254.761 0 254.761 0C254.761 0 239.644 6.85598 245.303 25.0812C247.211 31.2259 243.939 35.4884 240.345 40.1704C236.071 45.7379 231.342 51.8986 234.327 62.5226C237.059 72.2609 235.319 81.1371 232.836 87.695C232.3 87.7514 231.771 87.8222 231.242 87.8929L231.24 87.8931C230.84 87.9466 230.439 88.0001 230.035 88.0476C229.157 79.877 226.271 70.3657 218.152 65.5374C209.281 60.2531 207.699 50.8579 206.368 42.9588C205.312 36.6848 204.414 31.3546 200.149 29.7779C190.511 26.2195 189.894 7.29311 189.894 7.29311C189.894 7.29311 177.071 17.8323 187.247 33.9678C190.681 39.4105 188.622 44.3755 186.361 49.8292C183.673 56.3123 180.699 63.486 186.325 72.9734C191.495 81.6801 192.112 90.7324 191.403 97.7059C190.525 98.0364 189.655 98.3816 188.789 98.7267C185.818 91.0666 180.578 82.6317 171.497 80.0681C161.559 77.2659 157.599 68.6016 154.269 61.3156C151.625 55.5302 149.378 50.6138 144.85 50.1915C134.624 49.2404 129.12 31.1296 129.12 31.1296C129.12 31.1296 119.46 44.6216 133.468 57.573C138.191 61.9397 137.49 67.268 136.719 73.1208C135.803 80.08 134.788 87.7808 142.681 95.4882C149.936 102.579 152.878 111.172 153.993 118.108L153.882 118.189C153.163 118.709 152.448 119.226 151.739 119.757C146.892 113.114 139.633 106.306 130.181 106.181C119.855 106.046 113.787 98.6989 108.685 92.5213C104.634 87.6165 101.192 83.4491 96.7123 84.2147C86.5782 85.9517 76.5869 69.8672 76.5869 69.8672C76.5869 69.8672 70.7487 85.4076 87.6319 94.2942C93.3301 97.2911 94.0308 102.621 94.8004 108.476C95.715 115.433 96.7269 123.131 106.34 128.534C115.189 133.509 120.263 141.063 123.131 147.471C122.634 148.085 122.149 148.712 121.667 149.336L121.666 149.337L121.416 149.66C115.005 144.49 106.218 139.774 97.0421 142.095C87.0341 144.635 79.2735 139.112 72.7474 134.468C67.5646 130.779 63.1604 127.645 59.0275 129.543C49.6899 133.814 35.865 120.881 35.865 120.881C35.865 120.881 34.2493 137.402 52.8583 141.618C59.1391 143.038 61.1954 148.005 63.4539 153.461C66.1375 159.944 69.1065 167.116 79.7874 169.846C89.6208 172.357 96.4687 178.343 100.897 183.785C100.744 184.131 100.587 184.473 100.429 184.816L100.428 184.817L100.428 184.817C100.199 185.314 99.9701 185.812 99.7551 186.323C92.2388 182.996 82.5522 180.737 74.3131 185.349C65.3005 190.398 56.3723 187.069 48.8662 184.271C42.9076 182.05 37.8452 180.163 34.348 183.065C26.4424 189.631 9.74258 180.708 9.74258 180.708C9.74258 180.708 12.4634 197.078 31.5205 196.337C37.9545 196.087 41.2265 200.351 44.8198 205.035C49.0907 210.602 53.8154 216.76 64.8426 216.633C74.988 216.515 83.1472 220.522 88.8342 224.642C88.7535 225.183 88.6818 225.729 88.61 226.277L88.6098 226.278C88.5866 226.455 88.5634 226.632 88.5398 226.81C88.5338 226.855 88.5278 226.9 88.5217 226.945C88.5014 227.096 88.4808 227.248 88.4597 227.4C80.3265 226.122 70.3609 226.426 63.5713 233.022C56.174 240.236 46.6897 239.333 38.7148 238.573C32.3834 237.971 27.0033 237.458 24.3742 241.17C18.4405 249.55 0 245.254 0 245.254C0 245.254 6.85909 260.368 25.0792 254.713C31.2257 252.804 35.4892 256.076 40.1719 259.67C45.7386 263.943 51.8979 268.671 62.5175 265.689C72.2917 262.946 81.2151 264.709 87.78 267.209C87.8353 267.725 87.9043 268.239 87.973 268.751C88.0275 269.156 88.0818 269.561 88.1289 269.964C79.9443 270.834 70.3826 273.713 65.5397 281.847C60.2588 290.725 50.8611 292.311 42.959 293.645C36.6857 294.704 31.3551 295.604 29.7755 299.866C26.2064 309.495 7.28885 310.115 7.28885 310.115C7.28885 310.115 17.8272 322.939 33.9651 312.77C39.4074 309.336 44.3705 311.394 49.8229 313.654C56.3042 316.342 63.4769 319.316 72.9676 313.692C81.6993 308.507 90.7656 307.897 97.7563 308.617C98.0868 309.487 98.4246 310.343 98.7845 311.206C91.1029 314.166 82.6353 319.41 80.0654 328.509C77.2629 338.455 68.5935 342.416 61.3063 345.746C55.5222 348.389 50.6088 350.634 50.1912 355.158C49.2402 365.393 31.1271 370.889 31.1271 370.889C31.1271 370.889 44.6245 380.544 57.5796 366.553C61.9474 361.82 67.2753 362.523 73.128 363.294C80.0826 364.211 87.7781 365.226 95.4842 357.335C102.578 350.072 111.193 347.134 118.136 346.018C118.286 346.224 118.435 346.429 118.583 346.635L118.587 346.64C118.98 347.185 119.372 347.727 119.774 348.262C113.124 353.109 106.302 360.369 106.177 369.835C106.042 380.166 98.6947 386.235 92.519 391.336C87.6176 395.384 83.4541 398.824 84.2194 403.3C85.9451 413.435 69.8694 423.431 69.8694 423.431C69.8694 423.431 85.4085 429.262 94.3056 412.385C97.3021 406.689 102.63 405.988 108.482 405.218C115.438 404.303 123.134 403.29 128.539 393.676C133.503 384.815 141.052 379.758 147.464 376.883C148.006 377.323 148.563 377.755 149.117 378.185L149.118 378.185L149.659 378.605C144.489 385.013 139.774 393.797 142.095 402.97C144.641 412.986 139.117 420.75 134.472 427.276C130.785 432.457 127.653 436.859 129.556 440.988C133.844 450.323 120.901 464.141 120.901 464.141C120.901 464.141 137.424 465.764 141.639 447.154C143.055 440.878 148.02 438.822 153.474 436.563C159.957 433.878 167.131 430.906 169.865 420.225C172.362 410.406 178.325 403.568 183.766 399.132C184.15 399.302 184.534 399.48 184.916 399.656C185.382 399.87 185.847 400.085 186.315 400.289C183.003 407.802 180.755 417.467 185.364 425.69C190.413 434.697 187.086 443.625 184.289 451.134C182.067 457.097 180.179 462.165 183.083 465.668C189.641 473.563 180.719 490.268 180.719 490.268C180.719 490.268 197.095 487.551 196.354 468.488C196.104 462.054 200.368 458.78 205.05 455.185C210.615 450.913 216.77 446.188 216.641 435.164C216.523 425.05 220.504 416.917 224.605 411.225C227.326 411.651 230.058 412.01 232.826 412.308C235.312 418.855 237.049 427.742 234.317 437.474C231.336 448.092 236.063 454.253 240.336 459.822C243.93 464.505 247.202 468.77 245.293 474.915C239.634 493.14 254.751 500 254.751 500C254.751 500 250.455 481.566 258.834 475.62C262.542 472.993 262.03 467.614 261.428 461.284C260.669 453.308 259.766 443.821 266.978 436.42C273.547 429.667 273.885 419.741 272.626 411.637L273.119 411.572L273.483 411.524C274.132 411.44 274.783 411.355 275.427 411.258C279.511 416.943 283.476 425.055 283.359 435.149C283.229 446.18 289.391 450.908 294.96 455.18C299.645 458.774 303.91 462.046 303.653 468.478C302.912 487.544 319.288 490.25 319.288 490.25C319.288 490.25 310.366 473.556 316.931 465.65C319.837 462.152 317.949 457.087 315.726 451.125C312.928 443.618 309.599 434.689 314.64 425.672C319.229 417.479 317.008 407.851 313.718 400.348C314.265 400.118 314.801 399.867 315.336 399.617C315.536 399.523 315.737 399.429 315.937 399.336C316.057 399.281 316.176 399.227 316.296 399.173C321.719 403.612 327.645 410.425 330.135 420.199C332.869 430.883 340.043 433.854 346.527 436.539C351.982 438.798 356.948 440.854 358.372 447.131C362.576 465.745 379.104 464.125 379.104 464.125C379.104 464.125 366.164 450.307 370.456 440.976C372.355 436.843 369.221 432.438 365.532 427.254C360.888 420.726 355.365 412.963 357.903 402.951C360.212 393.829 355.564 385.078 350.427 378.688L350.811 378.386L351.249 378.043C351.518 377.832 351.787 377.621 352.056 377.409C352.206 377.291 352.355 377.172 352.505 377.053C352.556 377.012 352.608 376.971 352.659 376.93C359.041 379.805 366.524 384.861 371.463 393.66C376.867 403.272 384.565 404.285 391.522 405.201C397.376 405.971 402.705 406.673 405.7 412.369C414.586 429.258 430.125 423.419 430.125 423.419C430.125 423.419 414.053 413.423 415.778 403.292C416.542 398.806 412.374 395.362 407.47 391.311C401.295 386.21 393.952 380.144 393.813 369.817C393.692 360.416 386.954 353.193 380.341 348.338C380.778 347.756 381.206 347.167 381.631 346.584L382.027 346.039C388.934 347.17 397.467 350.123 404.51 357.331C412.211 365.222 419.908 364.207 426.865 363.29C432.719 362.518 438.049 361.815 442.414 366.545C455.376 380.547 468.867 370.893 468.867 370.893C468.867 370.893 450.75 365.384 449.803 355.162C449.383 350.637 444.468 348.39 438.682 345.746C431.394 342.415 422.725 338.452 419.917 328.512C417.369 319.475 409.005 314.242 401.378 311.26C401.73 310.382 402.083 309.486 402.431 308.598C409.379 307.907 418.371 308.55 427.014 313.687C436.498 319.312 443.671 316.34 450.155 313.653C455.613 311.392 460.583 309.332 466.032 312.773C482.155 322.945 492.693 310.125 492.693 310.125C492.693 310.125 473.776 309.497 470.21 299.869C468.632 295.606 463.302 294.707 457.03 293.65C449.131 292.318 439.736 290.734 434.454 281.861C429.647 273.786 420.199 270.885 412.051 269.989C412.093 269.653 412.138 269.318 412.183 268.984C412.266 268.372 412.348 267.762 412.408 267.147C418.958 264.686 427.799 262.984 437.479 265.705Z" fill="#FFC736"/>
</svg>
